<svg width="20" height="20" viewBox="0 0 20 20" fill="none" xmlns="http://www.w3.org/2000/svg">
<path d="M7.002 0.00134082C6.31322 0.384144 5.6948 0.872417 5.13419 1.43038C4.58255 1.97892 4.1017 2.59762 3.68718 3.27141C3.01096 4.36991 2.58165 5.56446 2.42704 6.86071C2.16937 9.02145 2.54177 11.0395 3.72438 12.8556C4.01342 13.2991 4.34369 13.7135 4.66142 14.1363C4.79855 14.319 4.94688 14.4937 5.0979 14.6641C5.34795 14.9462 5.34795 15.2494 5.18528 15.5734C4.94688 16.0466 4.59196 16.4115 4.19716 16.7364C3.99908 16.8993 3.78488 17.0401 3.58411 17.1992C3.53124 17.2411 3.50166 17.3165 3.46178 17.3763C3.52138 17.413 3.57963 17.4789 3.64058 17.4817C4.17027 17.5057 4.7013 17.5458 5.23009 17.5279C5.97354 17.5024 6.68696 17.2778 7.38873 17.0415C7.99102 16.8385 8.56193 16.8536 9.15839 17.0631C10.1833 17.4229 11.244 17.614 12.3244 17.6027C14.764 17.5773 17.0038 16.8842 18.9603 15.3083C19.309 15.0272 19.6325 14.7117 19.9825 14.3991C19.9883 14.4749 20.0004 14.553 20 14.6312C19.9982 15.5724 19.991 16.5141 19.9919 17.4554C19.9933 18.6381 19.037 19.561 18.1976 19.8237C17.9332 19.9066 17.6504 19.9593 17.3748 19.9636C15.818 19.9871 14.2612 20.0017 12.7044 19.9998C10.0721 19.997 7.44027 19.9838 4.80796 19.965C4.00222 19.9593 3.19693 19.9203 2.39119 19.8986C1.24891 19.868 0.579856 19.1768 0.137552 18.1461C-0.0148119 17.7911 -0.000919887 17.4323 0.00132076 17.0603C0.0120759 15.3596 0.00849083 13.6589 0.0107315 11.9586C0.0134203 9.53939 0.0143165 7.12062 0.0205903 4.70233C0.0223828 3.99652 0.0353786 3.29024 0.0528556 2.58491C0.0833284 1.33526 0.894443 0.280556 2.03 0.0649058C2.43287 -0.011843 2.85411 0.00604934 3.26729 0.00369508C4.5095 -0.00289684 5.75172 0.00134082 7.002 0.00134082Z" fill="#EB9D22"/>
<path d="M6.7092 9.67697C6.81899 9.68968 6.89966 9.70616 6.98032 9.7071C7.48402 9.71322 7.98771 9.71322 8.49141 9.7217C8.72175 9.72546 8.95254 9.73535 9.1058 9.96654C9.19542 10.1017 9.21693 10.2439 9.13448 10.3781C9.04933 10.5165 8.99959 10.6902 8.77418 10.686C7.99668 10.6709 7.21828 10.6818 6.44077 10.6738C6.184 10.6709 5.92632 10.654 5.67178 10.6201C5.35406 10.5777 5.16495 10.1497 5.35316 9.87755C5.77396 9.26921 6.21178 8.67358 6.64467 8.07419C6.92206 7.69044 7.20349 7.30999 7.48223 6.92719C7.52211 6.87257 7.55572 6.8123 7.61756 6.71437C7.49746 6.69412 7.40918 6.66869 7.32045 6.66587C6.82303 6.65033 6.32471 6.64798 5.82818 6.62208C5.71525 6.61643 5.59112 6.55663 5.49836 6.48412C5.38857 6.39843 5.32807 6.26517 5.3805 6.10885C5.43293 5.95206 5.51404 5.8141 5.68254 5.78914C5.89809 5.7576 6.11633 5.7284 6.33322 5.7317C7.09325 5.74253 7.85417 5.75195 8.6133 5.79385C9.05157 5.81787 9.19946 6.09849 8.97181 6.49118C8.70203 6.95639 8.38745 7.39381 8.0742 7.82887C7.66909 8.39154 7.24606 8.93961 6.83154 9.49428C6.7948 9.54419 6.76253 9.59739 6.7092 9.67697Z" fill="#EB9D22"/>
<path d="M12.863 8.89785C12.863 9.32114 12.8679 9.74444 12.8607 10.1677C12.8567 10.398 12.7792 10.5986 12.5596 10.6941C12.3472 10.7864 12.1455 10.7384 11.9846 10.5755C11.8592 10.4488 11.7565 10.4794 11.6306 10.5618C10.9773 10.9894 10.2499 10.8208 9.79554 10.3886C9.47288 10.0816 9.29946 9.69312 9.25823 9.24534C9.23403 8.98401 9.22955 8.71657 9.25151 8.45572C9.35682 7.2089 10.6649 6.51251 11.6727 7.1637C11.7906 7.23998 11.8771 7.21832 11.9761 7.13969C12.1164 7.02809 12.2656 6.93204 12.4534 6.96877C12.6676 7.0102 12.815 7.15946 12.8334 7.40148C12.871 7.89917 12.889 8.39827 12.915 8.89691C12.8984 8.89738 12.8805 8.89785 12.863 8.89785ZM11.1099 7.89258C10.8428 7.89022 10.6725 7.96179 10.5291 8.1087C10.1948 8.45054 10.1558 9.13751 10.4489 9.51984C10.7872 9.9615 11.3868 9.92524 11.6642 9.44168C11.8623 9.09655 11.8874 8.73258 11.7324 8.36296C11.6019 8.05314 11.3586 7.91141 11.1099 7.89258Z" fill="#EB9D22"/>
<path d="M16.7671 10.8043C15.6633 10.8085 14.9799 10.1169 14.936 9.00707C14.897 8.01969 15.3313 7.24043 16.159 6.98428C17.368 6.60995 18.5345 7.46314 18.5439 8.7222C18.547 9.17563 18.5192 9.61541 18.2508 9.99868C17.8686 10.5453 17.3653 10.8316 16.7671 10.8043ZM15.951 8.76693C15.9483 9.1116 16.0285 9.35973 16.1827 9.54808C16.3933 9.80563 16.7267 9.88991 16.9956 9.7722C17.6821 9.4718 17.6476 8.40532 17.1914 8.05076C16.971 7.87937 16.7326 7.80262 16.4552 7.94576C16.0989 8.12987 15.9672 8.43922 15.951 8.76693Z" fill="#EB9D22"/>
<path d="M13.4235 7.95791C13.4235 7.25257 13.4356 6.54724 13.4173 5.84237C13.4105 5.59047 13.5306 5.47887 13.7121 5.39412C14.0711 5.22697 14.4143 5.44073 14.4179 5.8452C14.4305 7.33167 14.4354 8.81862 14.4417 10.3051C14.4426 10.4675 14.2167 10.6888 14.0101 10.7373C13.804 10.7858 13.584 10.671 13.4908 10.4482C13.4513 10.3541 13.4258 10.2458 13.4249 10.1436C13.4195 9.41472 13.4217 8.68631 13.4217 7.95743C13.4226 7.95791 13.4231 7.95791 13.4235 7.95791Z" fill="#EB9D22"/>
</svg>
